<svg width="179" height="94" viewBox="0 0 179 94" fill="none" xmlns="http://www.w3.org/2000/svg">
<path fill-rule="evenodd" clip-rule="evenodd" d="M84.5999 0H125.96V11.28H116.56V20.6796H75.1998V9.39964H84.5999V0ZM105.28 20.6797H63.9202V31.9597H105.28V20.6797ZM54.5201 31.9599H95.8801V43.2399H84.6V52.6404H75.1999V63.9196H63.9202V73.3201H22.5602V62.0401H31.9599V52.6396H43.24V41.3604H54.5201V31.9599ZM11.2801 73.3203H54.5201V84.6003H43.24V93.9999H0V82.7199H11.2801V73.3203Z" fill="white"/>
<path d="M157.753 10.34V0H178.366V10.34H168.059V20.68H157.753V31.96H146.51V42.3H136.204V52.64H125.897V62.98H116.528V73.32H105.285V83.66H94.9783V94H74.3657V83.66H84.672V73.32H94.9783V62.98H105.285V52.64H116.528V41.36H125.897V31.02H136.204V20.68H146.51V10.34H157.753Z" fill="white"/>
</svg>
